<svg width="28" height="29" viewBox="0 0 28 29" fill="none" xmlns="http://www.w3.org/2000/svg">
<path d="M11.4836 17.6823C13.3601 17.3441 14.9151 16.0903 15.643 14.3282C16.3709 12.5661 16.1541 10.5804 15.0633 9.01669L12.4349 5.24826C11.9989 4.62306 11.3861 4.16453 10.6633 3.9224C9.94033 3.6802 9.17516 3.67727 8.45007 3.91365C7.72534 4.15054 7.10925 4.60466 6.66838 5.22686C6.22751 5.84905 6.00364 6.58109 6.0207 7.34357L6.02204 7.39471C6.05078 9.30741 5.27786 11.1602 3.89662 12.4856C3.54037 12.8275 3.26465 13.2318 3.08015 13.6784C2.97983 13.9212 2.9065 14.1769 2.86166 14.4417C2.73474 15.1936 2.85072 15.9501 3.19708 16.6297C3.54341 17.3088 4.08766 17.847 4.77088 18.1859C5.4541 18.5247 6.2117 18.6323 6.96216 18.4972L11.4836 17.6823Z" fill="#FFBD54"/>
<path d="M15.7596 7.34427C15.7399 8.13419 16.0753 8.87906 16.7042 9.44163C17.3026 9.97707 18.1014 10.2834 18.9536 10.3042C19.8054 10.3246 20.6179 10.0573 21.2419 9.55172C21.8972 9.02054 22.2687 8.29304 22.2875 7.50405C22.3266 5.91726 20.8941 4.58989 19.0932 4.54494C17.659 4.51089 16.4186 5.30075 15.954 6.42545C15.8354 6.71263 15.7674 7.02166 15.7596 7.34427Z" fill="#FFBD54"/>
<path d="M16.7238 12.9478C16.0167 14.6596 17.0281 16.7077 18.9783 17.5134C20.9291 18.3192 23.0914 17.5821 23.7985 15.8703C24.5056 14.1586 23.4938 12.1105 21.5431 11.3047C19.5928 10.4991 17.4309 11.2362 16.7238 12.9478Z" fill="#FFBD54"/>
<path d="M13.64 17.9503L13.6399 17.9505C13.4438 18.1777 13.291 18.4291 13.1805 18.6966C12.6649 19.945 13.0709 21.5369 14.2756 22.578C14.9689 23.1774 15.8261 23.5109 16.6891 23.517C17.5924 23.5236 18.3939 23.1753 18.9461 22.5363C19.4984 21.8971 19.7267 21.0534 19.5892 20.1606C19.4579 19.3077 19.0036 18.508 18.3101 17.909C16.8472 16.645 14.7522 16.6635 13.64 17.9503Z" fill="#FFBD54"/>
<path d="M11.3522 24.6586L11.3529 24.6583C12.7126 23.8381 13.0639 21.9164 12.1358 20.3742C11.2066 18.8327 9.34432 18.2444 7.98474 19.0627C7.48869 19.361 7.12666 19.8061 6.91191 20.3259C6.53764 21.232 6.6107 22.3657 7.20081 23.3471C8.13007 24.8885 9.99227 25.4769 11.3522 24.6586Z" fill="#FFBD54"/>
</svg>
